<mxfile host="65bd71144e">
    <diagram id="s089RvcWRa25ABd-d5k9" name="Страница 1">
        <mxGraphModel dx="812" dy="170" grid="1" gridSize="10" guides="1" tooltips="1" connect="1" arrows="1" fold="1" page="1" pageScale="1" pageWidth="827" pageHeight="1169" math="0" shadow="0">
            <root>
                <mxCell id="0"/>
                <mxCell id="1" parent="0"/>
                <mxCell id="4" value="" style="edgeStyle=none;html=1;" parent="1" source="2" target="3" edge="1">
                    <mxGeometry relative="1" as="geometry"/>
                </mxCell>
                <mxCell id="2" value="Start" style="ellipse;whiteSpace=wrap;html=1;" parent="1" vertex="1">
                    <mxGeometry x="120" y="60" width="160" height="40" as="geometry"/>
                </mxCell>
                <mxCell id="6" value="" style="edgeStyle=none;html=1;" parent="1" source="3" target="5" edge="1">
                    <mxGeometry relative="1" as="geometry"/>
                </mxCell>
                <mxCell id="3" value="Input: N&lt;br&gt;ввод пользователем" style="shape=parallelogram;perimeter=parallelogramPerimeter;whiteSpace=wrap;html=1;fixedSize=1;" parent="1" vertex="1">
                    <mxGeometry x="120" y="120" width="160" height="40" as="geometry"/>
                </mxCell>
                <mxCell id="13" value="" style="edgeStyle=none;html=1;entryX=0.5;entryY=0;entryDx=0;entryDy=0;" parent="1" source="5" target="24" edge="1">
                    <mxGeometry relative="1" as="geometry">
                        <mxPoint x="200" y="280" as="targetPoint"/>
                    </mxGeometry>
                </mxCell>
                <mxCell id="5" value="array[ ] = N&lt;br&gt;newArray[ ] = array.Length&lt;br&gt;count = 0" style="whiteSpace=wrap;html=1;" parent="1" vertex="1">
                    <mxGeometry x="120" y="180" width="160" height="60" as="geometry"/>
                </mxCell>
                <mxCell id="10" value="yes" style="edgeStyle=none;html=1;exitX=0.5;exitY=1;exitDx=0;exitDy=0;" parent="1" source="24" target="9" edge="1">
                    <mxGeometry relative="1" as="geometry">
                        <mxPoint x="200" y="400" as="sourcePoint"/>
                    </mxGeometry>
                </mxCell>
                <mxCell id="19" value="yes" style="edgeStyle=none;html=1;" parent="1" source="9" target="18" edge="1">
                    <mxGeometry relative="1" as="geometry"/>
                </mxCell>
                <mxCell id="26" value="no" style="edgeStyle=none;html=1;" parent="1" source="9" edge="1">
                    <mxGeometry relative="1" as="geometry">
                        <mxPoint x="80" y="360" as="targetPoint"/>
                    </mxGeometry>
                </mxCell>
                <mxCell id="9" value="array[ i ] &amp;lt;= 3" style="rhombus;whiteSpace=wrap;html=1;" parent="1" vertex="1">
                    <mxGeometry x="120" y="340" width="160" height="40" as="geometry"/>
                </mxCell>
                <mxCell id="23" style="edgeStyle=none;html=1;exitX=0;exitY=0.5;exitDx=0;exitDy=0;entryX=0;entryY=0.5;entryDx=0;entryDy=0;rounded=0;" parent="1" source="18" target="24" edge="1">
                    <mxGeometry relative="1" as="geometry">
                        <mxPoint x="90" y="480" as="targetPoint"/>
                        <Array as="points">
                            <mxPoint x="80" y="440"/>
                            <mxPoint x="80" y="280"/>
                        </Array>
                    </mxGeometry>
                </mxCell>
                <mxCell id="18" value="newArray[count] = array[ i ]&lt;br&gt;count ++" style="whiteSpace=wrap;html=1;" parent="1" vertex="1">
                    <mxGeometry x="120" y="420" width="160" height="40" as="geometry"/>
                </mxCell>
                <mxCell id="28" value="no" style="edgeStyle=none;html=1;entryX=0.5;entryY=0;entryDx=0;entryDy=0;rounded=0;" parent="1" source="24" target="27" edge="1">
                    <mxGeometry x="-0.8947" relative="1" as="geometry">
                        <Array as="points">
                            <mxPoint x="320" y="280"/>
                            <mxPoint x="320" y="480"/>
                            <mxPoint x="200" y="480"/>
                        </Array>
                        <mxPoint as="offset"/>
                    </mxGeometry>
                </mxCell>
                <mxCell id="24" value="&lt;span&gt;i = 0;&amp;nbsp;&lt;/span&gt;i &amp;lt; array.Length;&lt;br&gt;i++" style="shape=hexagon;perimeter=hexagonPerimeter2;whiteSpace=wrap;html=1;fixedSize=1;" parent="1" vertex="1">
                    <mxGeometry x="120" y="260" width="160" height="40" as="geometry"/>
                </mxCell>
                <mxCell id="32" value="yes" style="edgeStyle=none;html=1;" parent="1" source="27" target="31" edge="1">
                    <mxGeometry relative="1" as="geometry"/>
                </mxCell>
                <mxCell id="34" value="no" style="edgeStyle=none;html=1;entryX=0.5;entryY=0;entryDx=0;entryDy=0;rounded=0;" parent="1" source="27" target="35" edge="1">
                    <mxGeometry x="-0.8889" relative="1" as="geometry">
                        <mxPoint x="340" y="610" as="targetPoint"/>
                        <Array as="points">
                            <mxPoint x="320" y="520"/>
                            <mxPoint x="320" y="560"/>
                            <mxPoint x="320" y="660"/>
                            <mxPoint x="200" y="660"/>
                        </Array>
                        <mxPoint as="offset"/>
                    </mxGeometry>
                </mxCell>
                <mxCell id="27" value="&lt;span&gt;i = 0;&amp;nbsp;&lt;/span&gt;i &amp;lt; newArray.Length;&lt;br&gt;i++" style="shape=hexagon;perimeter=hexagonPerimeter2;whiteSpace=wrap;html=1;fixedSize=1;" parent="1" vertex="1">
                    <mxGeometry x="120" y="500" width="160" height="40" as="geometry"/>
                </mxCell>
                <mxCell id="33" style="edgeStyle=none;html=1;entryX=0;entryY=0.5;entryDx=0;entryDy=0;exitX=0;exitY=0.333;exitDx=0;exitDy=0;exitPerimeter=0;rounded=0;" parent="1" source="31" target="27" edge="1">
                    <mxGeometry relative="1" as="geometry">
                        <Array as="points">
                            <mxPoint x="80" y="600"/>
                            <mxPoint x="80" y="560"/>
                            <mxPoint x="80" y="520"/>
                        </Array>
                    </mxGeometry>
                </mxCell>
                <mxCell id="31" value="Out: newArray[ i ]" style="shape=document;whiteSpace=wrap;html=1;boundedLbl=1;" parent="1" vertex="1">
                    <mxGeometry x="120" y="580" width="160" height="60" as="geometry"/>
                </mxCell>
                <mxCell id="35" value="End" style="ellipse;whiteSpace=wrap;html=1;" parent="1" vertex="1">
                    <mxGeometry x="120" y="680" width="160" height="40" as="geometry"/>
                </mxCell>
            </root>
        </mxGraphModel>
    </diagram>
</mxfile>